<?xml version="1.0" standalone="no"?>
<!DOCTYPE svg PUBLIC "-//W3C//DTD SVG 20010904//EN"
 "http://www.w3.org/TR/2001/REC-SVG-20010904/DTD/svg10.dtd">
<svg version="1.0" xmlns="http://www.w3.org/2000/svg"
 width="1499.000000pt" height="1499.000000pt" viewBox="0 0 1499.000000 1499.000000"
 preserveAspectRatio="xMidYMid meet">
<metadata>
Created by potrace 1.14, written by Peter Selinger 2001-2017
</metadata>
<g transform="translate(0.000000,1499.000000) scale(0.100000,-0.100000)"
fill="#000000" stroke="none">
<path d="M7158 14985 c-2 -1 -59 -6 -128 -9 -69 -4 -138 -9 -155 -11 -16 -2
-61 -7 -100 -10 -38 -2 -88 -7 -110 -10 -192 -23 -300 -38 -365 -50 -14 -2
-43 -7 -64 -10 -39 -5 -372 -71 -411 -81 -11 -3 -31 -7 -45 -10 -134 -27 -519
-140 -749 -219 -456 -156 -1006 -414 -1407 -660 -199 -121 -517 -335 -599
-402 -5 -5 -39 -31 -75 -58 -381 -290 -773 -656 -1074 -1000 -43 -49 -88 -101
-100 -115 -57 -63 -202 -247 -289 -365 -53 -71 -100 -134 -105 -140 -29 -36
-242 -362 -304 -465 -114 -188 -161 -274 -282 -515 -270 -534 -470 -1088 -605
-1672 -33 -143 -35 -151 -56 -263 -8 -41 -16 -84 -19 -95 -2 -11 -9 -56 -16
-100 -7 -44 -13 -87 -15 -95 -5 -27 -14 -94 -20 -140 -3 -25 -8 -61 -10 -80
-3 -19 -7 -55 -10 -80 -12 -137 -16 -179 -20 -215 -20 -180 -28 -865 -12
-1085 12 -164 17 -232 22 -270 3 -19 7 -62 10 -95 3 -33 10 -91 16 -130 5 -38
12 -87 14 -107 3 -20 12 -79 21 -130 8 -51 17 -102 18 -113 7 -54 30 -170 56
-280 11 -44 21 -93 24 -110 11 -60 16 -78 56 -228 134 -498 299 -933 526
-1392 113 -229 133 -266 253 -472 101 -172 84 -144 224 -355 726 -1099 1751
-1999 2942 -2583 471 -231 909 -393 1445 -534 63 -16 127 -32 143 -35 15 -3
35 -7 45 -10 9 -3 28 -8 42 -10 104 -22 129 -27 160 -32 19 -3 37 -7 40 -9 3
-2 24 -6 46 -9 22 -4 51 -9 64 -11 38 -8 151 -26 190 -31 19 -2 46 -6 60 -9
23 -4 55 -8 153 -20 20 -3 54 -7 75 -10 20 -2 69 -7 107 -10 39 -4 86 -8 105
-10 256 -27 934 -27 1240 0 185 16 283 26 300 30 8 2 47 7 85 11 39 3 72 8 75
9 3 2 30 6 60 10 78 9 356 62 480 90 58 13 116 26 130 29 59 10 350 90 480
131 191 60 528 182 625 226 22 10 68 29 102 43 215 89 577 271 798 401 55 32
109 64 120 70 180 101 569 372 815 569 318 255 700 618 927 882 10 12 39 45
65 75 239 276 481 607 708 964 29 46 140 236 140 240 0 2 20 36 43 77 54 91
285 557 291 588 1 3 4 10 8 15 13 21 143 346 185 465 113 318 225 708 279 975
2 11 6 31 9 45 23 114 68 366 76 433 5 45 12 93 14 107 8 50 15 106 19 150 4
43 15 149 21 215 27 264 26 1031 0 1255 -2 19 -7 67 -10 105 -3 39 -8 81 -10
95 -3 14 -7 51 -10 83 -4 32 -8 66 -10 75 -2 10 -6 45 -10 77 -4 33 -9 69 -11
80 -3 11 -7 36 -10 55 -3 19 -7 46 -10 60 -11 60 -26 137 -30 165 -62 355
-225 920 -384 1320 -103 263 -312 702 -435 915 -21 36 -46 81 -57 100 -54 94
-249 404 -280 445 -5 6 -32 44 -61 85 -91 130 -99 141 -222 300 -189 245 -386
469 -608 692 -121 121 -316 304 -384 361 -23 19 -50 42 -59 51 -33 34 -353
285 -474 373 -100 73 -398 271 -495 330 -291 176 -672 373 -945 487 -74 32
-144 61 -155 66 -141 62 -576 210 -760 259 -38 11 -77 22 -85 25 -8 3 -26 8
-40 10 -14 3 -70 17 -125 31 -102 26 -408 90 -480 100 -22 4 -47 8 -55 10 -8
3 -46 9 -85 15 -38 5 -81 12 -95 14 -47 8 -283 37 -340 41 -82 6 -209 17 -255
21 -55 6 -811 14 -817 9z"/>
</g>
</svg>
